<svg xmlns="http://www.w3.org/2000/svg" width="1920" height="1080" viewBox="0 0 1920 1080" role="img" aria-labelledby="title desc">
<title id="title">CodeER Devpost cover</title><desc id="desc">Devpost gallery cover showing repository recovery from 46 to 94.</desc>
<rect width="1920" height="1080" fill="#F5F7FA"/><circle cx="1580" cy="160" r="420" fill="none" stroke="#D7E0E6" stroke-width="2" opacity=".55"/><g transform="translate(120 96) scale(.38)"><path d="M170 54C155 42 137 36 116 36C66 36 26 76 26 126C26 176 66 216 116 216C138 216 158 209 173 196" fill="none" stroke="#071018" stroke-width="24" stroke-linecap="round"/><path d="M62 130H91L105 101L125 159L142 120L155 130H183" fill="none" stroke="#FF4D35" stroke-width="11" stroke-linecap="round" stroke-linejoin="round"/><path d="M180 111L204 130L180 149" fill="none" stroke="#FF4D35" stroke-width="12" stroke-linecap="round" stroke-linejoin="round"/></g><text x="235" y="178" font-family="Inter,Arial,sans-serif" font-size="68" font-weight="760" fill="#071018">Code<tspan fill="#FF4D35">ER</tspan></text><text x="122" y="402" font-family="Space Grotesk,Inter,Arial,sans-serif" font-size="100" font-weight="760" fill="#071018">Emergency response</text><text x="122" y="510" font-family="Space Grotesk,Inter,Arial,sans-serif" font-size="100" font-weight="760" fill="#071018">for broken software.</text><text x="128" y="598" font-family="Inter,Arial,sans-serif" font-size="34" fill="#50616E">From failing build to verified recovery.</text><rect x="124" y="720" width="820" height="182" rx="24" fill="#FFFFFF" stroke="#D7E0E6" stroke-width="2"/><text x="166" y="774" font-family="monospace" font-size="20" font-weight="700" fill="#FF4D35">INCIDENT  ER-2048</text><text x="166" y="823" font-family="Inter,Arial,sans-serif" font-size="28" font-weight="650" fill="#071018">Repository health</text><text x="694" y="831" font-family="Arial" font-size="58" font-weight="760" fill="#FF4D35">46 → <tspan fill="#2BD584">94</tspan></text><text x="166" y="868" font-family="monospace" font-size="18" fill="#50616E">REPRODUCED → DIAGNOSED → REPAIRED → VERIFIED</text><rect x="1135" y="300" width="610" height="610" rx="88" fill="#FFFFFF" stroke="#D7E0E6" stroke-width="2"/><g transform="translate(1248 413) scale(1.5)"><path d="M170 54C155 42 137 36 116 36C66 36 26 76 26 126C26 176 66 216 116 216C138 216 158 209 173 196" fill="none" stroke="#071018" stroke-width="24" stroke-linecap="round"/><path d="M62 130H91L105 101L125 159L142 120L155 130H183" fill="none" stroke="#FF4D35" stroke-width="11" stroke-linecap="round" stroke-linejoin="round"/><path d="M180 111L204 130L180 149" fill="none" stroke="#FF4D35" stroke-width="12" stroke-linecap="round" stroke-linejoin="round"/></g><text x="122" y="1012" font-family="monospace" font-size="20" letter-spacing="2" fill="#50616E">POWERED BY CODEX · HUMAN-APPROVED RECOVERY</text>
</svg>
